#!OML:ASF E:\Steps\Project 1\Capture day 1\Session 2\Subject.ASF
:FULLY-SPECIFIED
:DEGREES
119
root -1.47373 17.9818 20.7241 -154.02 -0.501313 178.655
lowerback -27.6113 -2.4297 -6.28503
upperback -0.666945 -1.71021 0.0250607
thorax 14.1182 -1.39267 2.76652
lowerneck -3.62528 -3.71983 -0.479005
upperneck 8.1844 -5.1054 3.83378
head 3.40434 -2.32458 1.13111
rclavicle -1.68967e-015 7.95139e-016
rhumerus -40.9695 -16.5095 -77.6931
rradius 34.6846
rwrist -4.35075
rhand -7.11548 -56.9162
rfingers 7.12502
rthumb 18.7598 -86.0316
lclavicle -1.68967e-015 7.95139e-016
lhumerus -30.833 8.23118 78.2931
lradius 19.8812
lwrist -6.15074
lhand -21.914 -11.9025
lfingers 7.12502
lthumb 4.49186 18.0299
rfemur -24.6081 5.98535 19.8263
rtibia 8.25524
rfoot -17.9709 -4.564
rtoes -25.0748
lfemur -23.8942 -6.17248 -23.1244
ltibia 7.67052
lfoot -6.006 -6.31003
ltoes -20.9489
120
root -1.47319 17.9819 20.7237 -154.012 -0.524881 178.651
lowerback -27.6281 -2.43368 -6.28455
upperback -0.670984 -1.71642 0.0331301
thorax 14.1223 -1.39598 2.77215
lowerneck -3.06603 -3.75575 -0.311506
upperneck 7.21605 -5.14425 3.76961
head 2.95853 -2.37399 1.09099
rclavicle -1.05356e-014 -8.34896e-015
rhumerus -40.9029 -16.3058 -77.8308
rradius 34.7154
rwrist -4.84128
rhand -7.66221 -56.7998
rfingers 7.12502
rthumb 18.2338 -85.9652
lclavicle -1.05356e-014 -8.34896e-015
lhumerus -30.8657 8.50844 78.1998
lradius 19.8246
lwrist -6.38507
lhand -21.7918 -12.0827
lfingers 7.12502
lthumb 4.60979 17.8472
rfemur -24.615 5.9345 19.8466
rtibia 8.29496
rfoot -18.0701 -4.51516
rtoes -25.334
lfemur -23.9225 -6.10952 -23.141
ltibia 7.71746
lfoot -6.02197 -6.39
ltoes -21.4984
121
root -1.47245 17.9811 20.724 -153.975 -0.578945 178.64
lowerback -27.6271 -2.47008 -6.30857
upperback -0.710073 -1.76664 0.0585463
thorax 14.0827 -1.42123 2.79362
lowerneck -3.27344 -3.90718 -0.366591
upperneck 7.62118 -5.36248 3.99206
head 3.15175 -2.46005 1.15999
rclavicle -6.95746e-015 1.59028e-015
rhumerus -40.9589 -16.4484 -77.6721
rradius 34.7373
rwrist -4.19749
rhand -7.18133 -55.8175
rfingers 7.12502
rthumb 18.6964 -84.939
lclavicle -6.95746e-015 1.59028e-015
lhumerus -30.9734 8.57925 78.1957
lradius 19.8498
lwrist -6.40877
lhand -21.7157 -11.8424
lfingers 7.12502
lthumb 4.6833 18.0858
rfemur -24.6337 5.96821 19.8462
rtibia 8.30809
rfoot -18.1401 -4.57858
rtoes -25.566
lfemur -23.9947 -6.02127 -23.1755
ltibia 7.77293
lfoot -5.98387 -6.51411
ltoes -21.5794
122
root -1.47515 17.9764 20.7152 -153.989 -0.598053 178.636
lowerback -27.7809 -2.481 -6.2626
upperback -0.677353 -1.78248 0.0509231
thorax 14.1935 -1.42809 2.74942
lowerneck -2.63534 -4.16784 -0.116451
upperneck 6.76584 -5.70794 4.15721
head 2.7478 -2.64633 1.17225
rclavicle -5.96354e-015 4.77083e-015
rhumerus -41.0043 -16.508 -77.5921
rradius 34.8053
rwrist -3.73905
rhand -8.18025 -54.0948
rfingers 7.12502
rthumb 17.7354 -83.306
lclavicle -5.96354e-015 4.77083e-015
lhumerus -31.0224 8.61758 78.1793
lradius 19.8642
lwrist -6.35329
lhand -21.6027 -11.4659
lfingers 7.12502
lthumb 4.79244 18.4599
rfemur -24.5703 5.67266 19.9125
rtibia 8.32481
rfoot -18.1546 -4.34147
rtoes -25.5054
lfemur -23.9078 -6.02413 -23.238
ltibia 7.71545
lfoot -6.03989 -6.50239
ltoes -22.1919
123
root -1.47769 17.968 20.702 -153.961 -0.6628 178.614
lowerback -28.0264 -2.48515 -6.22387
upperback -0.637851 -1.78035 0.0279793
thorax 14.3529 -1.42873 2.69639
lowerneck -2.49669 -4.04855 -0.107799
upperneck 6.60348 -5.53751 4.0343
head 2.65819 -2.57245 1.14013
rclavicle 2.32578e-014 1.19271e-015
rhumerus -41.0134 -16.4045 -77.6763
rradius 34.8731
rwrist -4.00081
rhand -6.97084 -55.826
rfingers 7.12502
rthumb 18.8989 -84.9279
lclavicle 2.32578e-014 1.19271e-015
lhumerus -31.0525 8.58654 78.1849
lradius 19.905
lwrist -6.31909
lhand -21.5929 -11.2524
lfingers 7.12502
lthumb 4.80184 18.6732
rfemur -24.4702 5.41339 19.9757
rtibia 8.28538
rfoot -18.1303 -4.21133
rtoes -25.6824
lfemur -23.8055 -6.00483 -23.3435
ltibia 7.62303
lfoot -6.12625 -6.6201
ltoes -23.0185
124
root -1.47618 17.9685 20.7043 -153.955 -0.665986 178.638
lowerback -27.9907 -2.4668 -6.22084
upperback -0.655636 -1.76196 0.0308943
thorax 14.3137 -1.41972 2.7062
lowerneck -2.77504 -4.08367 -0.222548
upperneck 7.04959 -5.59811 4.19698
head 2.87227 -2.58323 1.20367
rclavicle 5.96354e-015 3.18055e-015
rhumerus -41.0251 -16.3085 -77.7483
rradius 34.9431
rwrist -4.4473
rhand -7.0602 -56.0772
rfingers 7.12502
rthumb 18.8129 -85.1874
lclavicle 5.96354e-015 3.18055e-015
lhumerus -31.1066 8.44018 78.2655
lradius 19.9802
lwrist -6.33266
lhand -21.8671 -11.3987
lfingers 7.12502
lthumb 4.53713 18.5327
rfemur -24.4671 5.42298 19.9982
rtibia 8.24948
rfoot -18.0956 -4.21951
rtoes -25.6703
lfemur -23.8191 -6.0399 -23.2828
ltibia 7.61495
lfoot -6.06401 -6.57555
ltoes -22.6645
